<mxfile host="app.diagrams.net" modified="2024-04-09T20:45:44.161Z" agent="Mozilla/5.0 (X11; Linux x86_64) AppleWebKit/537.36 (KHTML, like Gecko) Chrome/123.0.0.0 Safari/537.36" etag="Ues4pNeusMFjmi15oNuV" version="24.2.1" type="github">
  <diagram name="Page-1" id="psg-kxvUBmuvLzWI6EQK">
    <mxGraphModel dx="1364" dy="793" grid="1" gridSize="10" guides="1" tooltips="1" connect="1" arrows="1" fold="1" page="1" pageScale="1" pageWidth="850" pageHeight="1100" math="0" shadow="0">
      <root>
        <mxCell id="0" />
        <mxCell id="1" parent="0" />
        <mxCell id="krvjyNS96Ilai_hoWRbf-1" style="edgeStyle=orthogonalEdgeStyle;rounded=0;orthogonalLoop=1;jettySize=auto;html=1;exitX=0.5;exitY=0;exitDx=0;exitDy=0;entryX=0;entryY=1;entryDx=0;entryDy=0;strokeWidth=4;" edge="1" parent="1" source="krvjyNS96Ilai_hoWRbf-2" target="krvjyNS96Ilai_hoWRbf-41">
          <mxGeometry relative="1" as="geometry" />
        </mxCell>
        <mxCell id="krvjyNS96Ilai_hoWRbf-2" value="" style="rounded=1;whiteSpace=wrap;html=1;fontSize=12;glass=0;strokeWidth=3;shadow=0;fillColor=#e1d5e7;strokeColor=#000000;" vertex="1" parent="1">
          <mxGeometry x="238" y="388.5" width="130" height="40" as="geometry" />
        </mxCell>
        <mxCell id="krvjyNS96Ilai_hoWRbf-3" value="" style="ellipse;whiteSpace=wrap;html=1;aspect=fixed;strokeWidth=2;fillColor=#F19C99;strokeColor=#000000;" vertex="1" parent="1">
          <mxGeometry x="248" y="398.5" width="20" height="20" as="geometry" />
        </mxCell>
        <mxCell id="krvjyNS96Ilai_hoWRbf-4" value="" style="ellipse;whiteSpace=wrap;html=1;aspect=fixed;strokeWidth=2;fillColor=#F19C99;strokeColor=#000000;" vertex="1" parent="1">
          <mxGeometry x="278" y="398.5" width="20" height="20" as="geometry" />
        </mxCell>
        <mxCell id="krvjyNS96Ilai_hoWRbf-5" value="" style="ellipse;whiteSpace=wrap;html=1;aspect=fixed;strokeWidth=2;fillColor=#F19C99;strokeColor=#000000;" vertex="1" parent="1">
          <mxGeometry x="308" y="398.5" width="20" height="20" as="geometry" />
        </mxCell>
        <mxCell id="krvjyNS96Ilai_hoWRbf-6" value="" style="ellipse;whiteSpace=wrap;html=1;aspect=fixed;strokeWidth=2;fillColor=#F19C99;strokeColor=#000000;" vertex="1" parent="1">
          <mxGeometry x="338" y="398.5" width="20" height="20" as="geometry" />
        </mxCell>
        <mxCell id="krvjyNS96Ilai_hoWRbf-7" style="edgeStyle=orthogonalEdgeStyle;rounded=0;orthogonalLoop=1;jettySize=auto;html=1;exitX=0.5;exitY=0;exitDx=0;exitDy=0;entryX=0;entryY=1;entryDx=0;entryDy=0;strokeWidth=4;" edge="1" parent="1" source="krvjyNS96Ilai_hoWRbf-8" target="krvjyNS96Ilai_hoWRbf-61">
          <mxGeometry relative="1" as="geometry">
            <Array as="points">
              <mxPoint x="170" y="233.5" />
              <mxPoint x="170" y="233.5" />
            </Array>
          </mxGeometry>
        </mxCell>
        <mxCell id="krvjyNS96Ilai_hoWRbf-8" value="" style="rounded=1;whiteSpace=wrap;html=1;fontSize=12;glass=0;strokeWidth=3;shadow=0;rotation=90;fillColor=#d5e8d4;strokeColor=#000000;" vertex="1" parent="1">
          <mxGeometry x="47" y="213.5" width="140" height="40" as="geometry" />
        </mxCell>
        <mxCell id="krvjyNS96Ilai_hoWRbf-9" value="" style="ellipse;whiteSpace=wrap;html=1;aspect=fixed;strokeWidth=2;fillColor=#67AB9F;strokeColor=#000000;" vertex="1" parent="1">
          <mxGeometry x="107" y="178.5" width="20" height="20" as="geometry" />
        </mxCell>
        <mxCell id="krvjyNS96Ilai_hoWRbf-10" value="" style="ellipse;whiteSpace=wrap;html=1;aspect=fixed;strokeWidth=2;fillColor=#67AB9F;strokeColor=#000000;" vertex="1" parent="1">
          <mxGeometry x="107" y="208.5" width="20" height="20" as="geometry" />
        </mxCell>
        <mxCell id="krvjyNS96Ilai_hoWRbf-11" value="" style="ellipse;whiteSpace=wrap;html=1;aspect=fixed;strokeWidth=2;fillColor=#67AB9F;strokeColor=#000000;" vertex="1" parent="1">
          <mxGeometry x="107" y="238.5" width="20" height="20" as="geometry" />
        </mxCell>
        <mxCell id="krvjyNS96Ilai_hoWRbf-12" value="" style="ellipse;whiteSpace=wrap;html=1;aspect=fixed;strokeWidth=2;fillColor=#67AB9F;strokeColor=#000000;" vertex="1" parent="1">
          <mxGeometry x="107" y="268.5" width="20" height="20" as="geometry" />
        </mxCell>
        <mxCell id="krvjyNS96Ilai_hoWRbf-13" style="edgeStyle=orthogonalEdgeStyle;rounded=0;orthogonalLoop=1;jettySize=auto;html=1;exitX=0;exitY=0;exitDx=0;exitDy=0;entryX=0.5;entryY=1;entryDx=0;entryDy=0;strokeWidth=4;" edge="1" parent="1" source="krvjyNS96Ilai_hoWRbf-37" target="krvjyNS96Ilai_hoWRbf-2">
          <mxGeometry relative="1" as="geometry" />
        </mxCell>
        <mxCell id="krvjyNS96Ilai_hoWRbf-14" value="x&lt;sup&gt;(2)&lt;/sup&gt;" style="text;html=1;align=center;verticalAlign=middle;whiteSpace=wrap;rounded=0;fontSize=23;strokeWidth=4;" vertex="1" parent="1">
          <mxGeometry x="207" y="473.5" width="60" height="30" as="geometry" />
        </mxCell>
        <mxCell id="krvjyNS96Ilai_hoWRbf-15" value="" style="endArrow=classic;html=1;rounded=0;entryX=0.5;entryY=1;entryDx=0;entryDy=0;strokeWidth=4;exitX=1;exitY=1;exitDx=0;exitDy=0;" edge="1" parent="1" source="krvjyNS96Ilai_hoWRbf-45" target="krvjyNS96Ilai_hoWRbf-8">
          <mxGeometry width="50" height="50" relative="1" as="geometry">
            <mxPoint x="27" y="233.5" as="sourcePoint" />
            <mxPoint x="317" y="348.5" as="targetPoint" />
          </mxGeometry>
        </mxCell>
        <mxCell id="krvjyNS96Ilai_hoWRbf-16" value="h&lt;sup&gt;(1)&lt;/sup&gt;" style="text;html=1;align=center;verticalAlign=middle;whiteSpace=wrap;rounded=0;fontSize=23;strokeWidth=4;" vertex="1" parent="1">
          <mxGeometry x="1" y="278.5" width="60" height="30" as="geometry" />
        </mxCell>
        <mxCell id="krvjyNS96Ilai_hoWRbf-17" value="y&lt;sup&gt;(2)&lt;/sup&gt;" style="text;html=1;align=center;verticalAlign=middle;whiteSpace=wrap;rounded=0;fontSize=23;strokeWidth=4;" vertex="1" parent="1">
          <mxGeometry x="509" y="7" width="60" height="30" as="geometry" />
        </mxCell>
        <mxCell id="krvjyNS96Ilai_hoWRbf-18" value="W&lt;sub&gt;x&lt;/sub&gt;" style="text;html=1;align=center;verticalAlign=middle;whiteSpace=wrap;rounded=0;fontSize=28;fontStyle=2" vertex="1" parent="1">
          <mxGeometry x="168" y="393.5" width="60" height="30" as="geometry" />
        </mxCell>
        <mxCell id="krvjyNS96Ilai_hoWRbf-19" value="W&lt;sub&gt;h&lt;/sub&gt;" style="text;html=1;align=center;verticalAlign=middle;whiteSpace=wrap;rounded=0;fontSize=28;fontStyle=2" vertex="1" parent="1">
          <mxGeometry x="41" y="138.5" width="60" height="30" as="geometry" />
        </mxCell>
        <mxCell id="krvjyNS96Ilai_hoWRbf-20" style="edgeStyle=orthogonalEdgeStyle;rounded=0;orthogonalLoop=1;jettySize=auto;html=1;entryX=0;entryY=1;entryDx=0;entryDy=0;strokeWidth=4;" edge="1" parent="1" source="krvjyNS96Ilai_hoWRbf-21" target="krvjyNS96Ilai_hoWRbf-37">
          <mxGeometry relative="1" as="geometry" />
        </mxCell>
        <mxCell id="krvjyNS96Ilai_hoWRbf-21" value="" style="rounded=1;whiteSpace=wrap;html=1;fontSize=12;glass=0;strokeWidth=3;shadow=0;fillColor=#FFE599;strokeColor=#000000;" vertex="1" parent="1">
          <mxGeometry x="238" y="549.5" width="130" height="40" as="geometry" />
        </mxCell>
        <mxCell id="krvjyNS96Ilai_hoWRbf-22" value="" style="ellipse;whiteSpace=wrap;html=1;aspect=fixed;strokeWidth=2;fillColor=#CCCC00;strokeColor=#000000;" vertex="1" parent="1">
          <mxGeometry x="248" y="559.5" width="20" height="20" as="geometry" />
        </mxCell>
        <mxCell id="krvjyNS96Ilai_hoWRbf-23" value="" style="ellipse;whiteSpace=wrap;html=1;aspect=fixed;strokeWidth=2;fillColor=#CCCC00;strokeColor=#000000;" vertex="1" parent="1">
          <mxGeometry x="278" y="559.5" width="20" height="20" as="geometry" />
        </mxCell>
        <mxCell id="krvjyNS96Ilai_hoWRbf-24" value="" style="ellipse;whiteSpace=wrap;html=1;aspect=fixed;strokeWidth=2;fillColor=#CCCC00;strokeColor=#000000;" vertex="1" parent="1">
          <mxGeometry x="308" y="559.5" width="20" height="20" as="geometry" />
        </mxCell>
        <mxCell id="krvjyNS96Ilai_hoWRbf-25" value="" style="ellipse;whiteSpace=wrap;html=1;aspect=fixed;strokeWidth=2;fillColor=#CCCC00;strokeColor=#000000;" vertex="1" parent="1">
          <mxGeometry x="338" y="559.5" width="20" height="20" as="geometry" />
        </mxCell>
        <mxCell id="krvjyNS96Ilai_hoWRbf-26" value="W&lt;sub&gt;e&lt;/sub&gt;" style="text;html=1;align=center;verticalAlign=middle;whiteSpace=wrap;rounded=0;fontSize=28;fontStyle=2" vertex="1" parent="1">
          <mxGeometry x="178" y="554.5" width="60" height="30" as="geometry" />
        </mxCell>
        <mxCell id="krvjyNS96Ilai_hoWRbf-27" style="edgeStyle=orthogonalEdgeStyle;rounded=0;orthogonalLoop=1;jettySize=auto;html=1;entryX=0.5;entryY=1;entryDx=0;entryDy=0;strokeWidth=4;" edge="1" parent="1" source="krvjyNS96Ilai_hoWRbf-28" target="krvjyNS96Ilai_hoWRbf-21">
          <mxGeometry relative="1" as="geometry" />
        </mxCell>
        <mxCell id="krvjyNS96Ilai_hoWRbf-28" value="palavra&lt;sup&gt;(2)&lt;/sup&gt;" style="text;html=1;align=center;verticalAlign=middle;whiteSpace=wrap;rounded=0;fontSize=24;" vertex="1" parent="1">
          <mxGeometry x="273" y="639.5" width="60" height="30" as="geometry" />
        </mxCell>
        <mxCell id="krvjyNS96Ilai_hoWRbf-29" style="edgeStyle=orthogonalEdgeStyle;rounded=0;orthogonalLoop=1;jettySize=auto;html=1;strokeWidth=4;" edge="1" parent="1">
          <mxGeometry relative="1" as="geometry">
            <mxPoint x="534" y="47" as="targetPoint" />
            <mxPoint x="534" y="102" as="sourcePoint" />
          </mxGeometry>
        </mxCell>
        <mxCell id="krvjyNS96Ilai_hoWRbf-30" value="" style="rounded=1;whiteSpace=wrap;html=1;fontSize=12;glass=0;strokeWidth=3;shadow=0;fillColor=#99CCFF;strokeColor=#000000;" vertex="1" parent="1">
          <mxGeometry x="468" y="102" width="130" height="40" as="geometry" />
        </mxCell>
        <mxCell id="krvjyNS96Ilai_hoWRbf-31" value="" style="ellipse;whiteSpace=wrap;html=1;aspect=fixed;strokeWidth=2;fillColor=#000066;strokeColor=#000000;" vertex="1" parent="1">
          <mxGeometry x="479" y="112" width="20" height="20" as="geometry" />
        </mxCell>
        <mxCell id="krvjyNS96Ilai_hoWRbf-32" value="" style="ellipse;whiteSpace=wrap;html=1;aspect=fixed;strokeWidth=2;fillColor=#000066;strokeColor=#000000;" vertex="1" parent="1">
          <mxGeometry x="509" y="112" width="20" height="20" as="geometry" />
        </mxCell>
        <mxCell id="krvjyNS96Ilai_hoWRbf-33" value="" style="ellipse;whiteSpace=wrap;html=1;aspect=fixed;strokeWidth=2;fillColor=#000066;strokeColor=#000000;" vertex="1" parent="1">
          <mxGeometry x="539" y="112" width="20" height="20" as="geometry" />
        </mxCell>
        <mxCell id="krvjyNS96Ilai_hoWRbf-34" value="W&lt;sub&gt;y&lt;/sub&gt;" style="text;html=1;align=center;verticalAlign=middle;whiteSpace=wrap;rounded=0;fontSize=28;fontStyle=2" vertex="1" parent="1">
          <mxGeometry x="408" y="102" width="60" height="30" as="geometry" />
        </mxCell>
        <mxCell id="krvjyNS96Ilai_hoWRbf-35" value="" style="rounded=0;whiteSpace=wrap;html=1;strokeWidth=3;fillColor=#fff2cc;strokeColor=#d6b656;" vertex="1" parent="1">
          <mxGeometry x="263" y="480.5" width="20" height="20" as="geometry" />
        </mxCell>
        <mxCell id="krvjyNS96Ilai_hoWRbf-36" value="" style="rounded=0;whiteSpace=wrap;html=1;strokeWidth=3;fillColor=#fff2cc;strokeColor=#d6b656;" vertex="1" parent="1">
          <mxGeometry x="283" y="480.5" width="20" height="20" as="geometry" />
        </mxCell>
        <mxCell id="krvjyNS96Ilai_hoWRbf-37" value="" style="rounded=0;whiteSpace=wrap;html=1;strokeWidth=3;fillColor=#fff2cc;strokeColor=#d6b656;" vertex="1" parent="1">
          <mxGeometry x="303" y="480.5" width="20" height="20" as="geometry" />
        </mxCell>
        <mxCell id="krvjyNS96Ilai_hoWRbf-38" value="" style="rounded=0;whiteSpace=wrap;html=1;strokeWidth=3;fillColor=#fff2cc;strokeColor=#d6b656;" vertex="1" parent="1">
          <mxGeometry x="323" y="480.5" width="20" height="20" as="geometry" />
        </mxCell>
        <mxCell id="krvjyNS96Ilai_hoWRbf-39" value="" style="rounded=0;whiteSpace=wrap;html=1;strokeWidth=3;fillColor=#e1d5e7;strokeColor=#9673a6;" vertex="1" parent="1">
          <mxGeometry x="263" y="316.5" width="20" height="20" as="geometry" />
        </mxCell>
        <mxCell id="krvjyNS96Ilai_hoWRbf-40" value="" style="rounded=0;whiteSpace=wrap;html=1;strokeWidth=3;fillColor=#e1d5e7;strokeColor=#9673a6;" vertex="1" parent="1">
          <mxGeometry x="283" y="316.5" width="20" height="20" as="geometry" />
        </mxCell>
        <mxCell id="krvjyNS96Ilai_hoWRbf-41" value="" style="rounded=0;whiteSpace=wrap;html=1;strokeWidth=3;fillColor=#e1d5e7;strokeColor=#9673a6;" vertex="1" parent="1">
          <mxGeometry x="303" y="316.5" width="20" height="20" as="geometry" />
        </mxCell>
        <mxCell id="krvjyNS96Ilai_hoWRbf-42" value="" style="rounded=0;whiteSpace=wrap;html=1;strokeWidth=3;fillColor=#e1d5e7;strokeColor=#9673a6;" vertex="1" parent="1">
          <mxGeometry x="323" y="316.5" width="20" height="20" as="geometry" />
        </mxCell>
        <mxCell id="krvjyNS96Ilai_hoWRbf-43" value="" style="rounded=0;whiteSpace=wrap;html=1;strokeWidth=3;fillColor=#eeeeee;strokeColor=#36393d;" vertex="1" parent="1">
          <mxGeometry x="18" y="253.5" width="20" height="20" as="geometry" />
        </mxCell>
        <mxCell id="krvjyNS96Ilai_hoWRbf-44" value="" style="rounded=0;whiteSpace=wrap;html=1;strokeWidth=3;fillColor=#eeeeee;strokeColor=#36393d;" vertex="1" parent="1">
          <mxGeometry x="18" y="233.5" width="20" height="20" as="geometry" />
        </mxCell>
        <mxCell id="krvjyNS96Ilai_hoWRbf-45" value="" style="rounded=0;whiteSpace=wrap;html=1;strokeWidth=3;fillColor=#eeeeee;strokeColor=#36393d;" vertex="1" parent="1">
          <mxGeometry x="18" y="213.5" width="20" height="20" as="geometry" />
        </mxCell>
        <mxCell id="krvjyNS96Ilai_hoWRbf-46" value="" style="rounded=0;whiteSpace=wrap;html=1;strokeWidth=3;fillColor=#eeeeee;strokeColor=#36393d;" vertex="1" parent="1">
          <mxGeometry x="18" y="194.5" width="20" height="20" as="geometry" />
        </mxCell>
        <mxCell id="krvjyNS96Ilai_hoWRbf-47" value="" style="rounded=0;whiteSpace=wrap;html=1;strokeWidth=3;fillColor=#eeeeee;strokeColor=#36393d;" vertex="1" parent="1">
          <mxGeometry x="524" y="255.5" width="20" height="20" as="geometry" />
        </mxCell>
        <mxCell id="krvjyNS96Ilai_hoWRbf-48" value="" style="rounded=0;whiteSpace=wrap;html=1;strokeWidth=3;fillColor=#eeeeee;strokeColor=#36393d;" vertex="1" parent="1">
          <mxGeometry x="524" y="235.5" width="20" height="20" as="geometry" />
        </mxCell>
        <mxCell id="krvjyNS96Ilai_hoWRbf-49" value="" style="rounded=0;whiteSpace=wrap;html=1;strokeWidth=3;fillColor=#eeeeee;strokeColor=#36393d;" vertex="1" parent="1">
          <mxGeometry x="524" y="215.5" width="20" height="20" as="geometry" />
        </mxCell>
        <mxCell id="krvjyNS96Ilai_hoWRbf-50" style="edgeStyle=orthogonalEdgeStyle;rounded=0;orthogonalLoop=1;jettySize=auto;html=1;entryX=0.5;entryY=1;entryDx=0;entryDy=0;strokeWidth=4;" edge="1" parent="1" source="krvjyNS96Ilai_hoWRbf-51">
          <mxGeometry relative="1" as="geometry">
            <mxPoint x="534" y="142" as="targetPoint" />
          </mxGeometry>
        </mxCell>
        <mxCell id="krvjyNS96Ilai_hoWRbf-51" value="" style="rounded=0;whiteSpace=wrap;html=1;strokeWidth=3;fillColor=#eeeeee;strokeColor=#36393d;" vertex="1" parent="1">
          <mxGeometry x="524" y="196.5" width="20" height="20" as="geometry" />
        </mxCell>
        <mxCell id="krvjyNS96Ilai_hoWRbf-52" value="" style="ellipse;whiteSpace=wrap;html=1;aspect=fixed;strokeWidth=2;fillColor=#000066;strokeColor=#000000;" vertex="1" parent="1">
          <mxGeometry x="569" y="112" width="20" height="20" as="geometry" />
        </mxCell>
        <mxCell id="krvjyNS96Ilai_hoWRbf-53" value="h&lt;sup&gt;(2)&lt;/sup&gt;" style="text;html=1;align=center;verticalAlign=middle;whiteSpace=wrap;rounded=0;fontSize=23;strokeWidth=4;" vertex="1" parent="1">
          <mxGeometry x="509" y="283.5" width="60" height="30" as="geometry" />
        </mxCell>
        <mxCell id="krvjyNS96Ilai_hoWRbf-54" style="edgeStyle=orthogonalEdgeStyle;rounded=0;orthogonalLoop=1;jettySize=auto;html=1;exitX=1;exitY=0.5;exitDx=0;exitDy=0;entryX=0;entryY=0.5;entryDx=0;entryDy=0;strokeWidth=4;" edge="1" parent="1" source="krvjyNS96Ilai_hoWRbf-55" target="krvjyNS96Ilai_hoWRbf-57">
          <mxGeometry relative="1" as="geometry" />
        </mxCell>
        <mxCell id="krvjyNS96Ilai_hoWRbf-55" value="+" style="ellipse;whiteSpace=wrap;html=1;aspect=fixed;fontSize=32;strokeWidth=4;" vertex="1" parent="1">
          <mxGeometry x="278" y="208.5" width="50" height="50" as="geometry" />
        </mxCell>
        <mxCell id="krvjyNS96Ilai_hoWRbf-56" style="edgeStyle=orthogonalEdgeStyle;rounded=0;orthogonalLoop=1;jettySize=auto;html=1;exitX=1;exitY=0;exitDx=0;exitDy=0;entryX=0.5;entryY=1;entryDx=0;entryDy=0;strokeWidth=4;" edge="1" parent="1" source="krvjyNS96Ilai_hoWRbf-40" target="krvjyNS96Ilai_hoWRbf-55">
          <mxGeometry relative="1" as="geometry" />
        </mxCell>
        <mxCell id="krvjyNS96Ilai_hoWRbf-57" value="" style="ellipse;whiteSpace=wrap;html=1;aspect=fixed;fontSize=32;strokeWidth=4;" vertex="1" parent="1">
          <mxGeometry x="393" y="208" width="50" height="50" as="geometry" />
        </mxCell>
        <mxCell id="krvjyNS96Ilai_hoWRbf-58" value="" style="rounded=0;whiteSpace=wrap;html=1;strokeWidth=3;fillColor=#d5e8d4;strokeColor=#82b366;" vertex="1" parent="1">
          <mxGeometry x="200" y="253.5" width="20" height="20" as="geometry" />
        </mxCell>
        <mxCell id="krvjyNS96Ilai_hoWRbf-59" value="" style="rounded=0;whiteSpace=wrap;html=1;strokeWidth=3;fillColor=#d5e8d4;strokeColor=#82b366;" vertex="1" parent="1">
          <mxGeometry x="200" y="233.5" width="20" height="20" as="geometry" />
        </mxCell>
        <mxCell id="krvjyNS96Ilai_hoWRbf-60" style="edgeStyle=orthogonalEdgeStyle;rounded=0;orthogonalLoop=1;jettySize=auto;html=1;exitX=1;exitY=1;exitDx=0;exitDy=0;strokeWidth=4;" edge="1" parent="1" source="krvjyNS96Ilai_hoWRbf-61" target="krvjyNS96Ilai_hoWRbf-55">
          <mxGeometry relative="1" as="geometry">
            <Array as="points">
              <mxPoint x="218" y="233.5" />
              <mxPoint x="218" y="233.5" />
            </Array>
          </mxGeometry>
        </mxCell>
        <mxCell id="krvjyNS96Ilai_hoWRbf-61" value="" style="rounded=0;whiteSpace=wrap;html=1;strokeWidth=3;fillColor=#d5e8d4;strokeColor=#82b366;" vertex="1" parent="1">
          <mxGeometry x="200" y="213.5" width="20" height="20" as="geometry" />
        </mxCell>
        <mxCell id="krvjyNS96Ilai_hoWRbf-62" value="" style="rounded=0;whiteSpace=wrap;html=1;strokeWidth=3;fillColor=#d5e8d4;strokeColor=#82b366;" vertex="1" parent="1">
          <mxGeometry x="200" y="194.5" width="20" height="20" as="geometry" />
        </mxCell>
        <mxCell id="krvjyNS96Ilai_hoWRbf-63" value="festejar" style="text;html=1;align=center;verticalAlign=middle;whiteSpace=wrap;rounded=0;fontSize=24;fontStyle=2" vertex="1" parent="1">
          <mxGeometry x="273" y="690" width="60" height="30" as="geometry" />
        </mxCell>
        <mxCell id="krvjyNS96Ilai_hoWRbf-64" value="" style="endArrow=classic;html=1;rounded=0;exitX=1;exitY=0;exitDx=0;exitDy=0;strokeWidth=4;" edge="1" parent="1" source="krvjyNS96Ilai_hoWRbf-48">
          <mxGeometry width="50" height="50" relative="1" as="geometry">
            <mxPoint x="413" y="377" as="sourcePoint" />
            <mxPoint x="623" y="236" as="targetPoint" />
          </mxGeometry>
        </mxCell>
        <mxCell id="krvjyNS96Ilai_hoWRbf-65" value="" style="endArrow=classic;html=1;rounded=0;exitX=1;exitY=0;exitDx=0;exitDy=0;strokeWidth=4;" edge="1" parent="1">
          <mxGeometry width="50" height="50" relative="1" as="geometry">
            <mxPoint x="445" y="235.5" as="sourcePoint" />
            <mxPoint x="524" y="235.5" as="targetPoint" />
          </mxGeometry>
        </mxCell>
      </root>
    </mxGraphModel>
  </diagram>
</mxfile>
